<?xml version="1.0" standalone="no"?>
<!DOCTYPE svg PUBLIC "-//W3C//DTD SVG 20010904//EN"
 "http://www.w3.org/TR/2001/REC-SVG-20010904/DTD/svg10.dtd">
<svg version="1.0" xmlns="http://www.w3.org/2000/svg"
 width="512.000000pt" height="512.000000pt" viewBox="0 0 512.000000 512.000000"
 preserveAspectRatio="xMidYMid meet">

<g transform="translate(0.000000,512.000000) scale(0.100000,-0.100000)"
fill="#000000" stroke="none">
<path d="M2467 4885 c-21 -7 -41 -15 -43 -18 -3 -3 13 -33 35 -67 84 -130 31
-180 -98 -95 -29 19 -57 35 -61 35 -16 0 -34 -75 -34 -136 0 -57 18 -124 33
-124 3 0 23 12 44 26 63 43 119 64 139 53 37 -20 18 -88 -50 -177 l-22 -30 47
-16 c60 -20 132 -20 183 0 22 9 40 18 40 20 0 2 -18 32 -40 66 -32 48 -40 71
-38 98 3 31 6 35 35 38 36 4 78 -15 127 -58 l34 -30 16 40 c20 51 20 133 0
193 l-16 46 -58 -41 c-65 -45 -124 -56 -143 -26 -16 25 6 86 49 137 42 49 40
54 -39 71 -62 13 -93 12 -140 -5z"/>
<path d="M2275 4272 c-47 -16 -85 -60 -85 -98 0 -19 -7 -22 -81 -27 -183 -12
-299 -130 -299 -303 0 -34 7 -81 15 -105 9 -24 87 -152 174 -284 l159 -240 -8
-165 c-5 -91 -9 -172 -9 -181 -1 -10 -12 -19 -28 -22 -43 -9 -95 -49 -121 -92
-18 -32 -22 -52 -20 -100 6 -106 65 -155 188 -155 l73 0 -7 -92 c-9 -115 -40
-300 -67 -398 -22 -78 -119 -334 -208 -552 -48 -115 -55 -127 -82 -133 -64
-14 -104 -104 -75 -167 17 -34 16 -35 -23 -113 -63 -123 -82 -188 -88 -301 -6
-106 7 -176 47 -255 19 -35 18 -37 0 -75 -41 -83 -43 -173 -5 -188 9 -3 387
-6 840 -6 l824 0 15 22 c24 34 20 107 -8 162 l-24 48 19 42 c50 113 64 272 33
377 -18 60 -60 150 -105 220 -25 39 -28 51 -19 73 24 64 -2 125 -65 156 -37
18 -47 30 -64 73 -10 29 -46 122 -79 207 -106 276 -133 378 -183 690 -16 102
-29 191 -29 198 0 8 18 12 55 12 66 0 100 16 143 64 52 59 53 132 3 213 -21
33 -86 73 -120 73 -17 0 -20 10 -26 113 -3 61 -7 144 -8 182 l-2 70 143 214
c155 233 187 293 203 373 34 179 -96 330 -296 345 -71 6 -76 7 -82 32 -10 44
-42 80 -81 91 -40 11 -504 12 -537 2z m513 -157 c2 -27 8 -55 13 -61 6 -7 52
-13 117 -16 126 -5 170 -21 214 -82 28 -38 30 -46 26 -111 -3 -40 -13 -85 -23
-105 -10 -19 -79 -127 -153 -240 -74 -113 -144 -224 -154 -248 -18 -40 -18
-54 -9 -225 6 -100 14 -197 17 -215 6 -39 52 -72 101 -72 22 0 38 -8 52 -26
25 -32 26 -52 5 -82 -14 -20 -24 -22 -103 -22 -72 0 -93 -4 -112 -19 l-24 -19
19 -128 c65 -461 108 -623 275 -1041 l21 -53 -520 0 c-286 0 -520 2 -520 5 0
3 25 67 56 143 188 457 229 615 259 989 6 74 5 83 -14 102 -19 19 -33 21 -124
21 -114 0 -127 6 -127 55 0 42 33 71 91 79 75 11 76 12 88 263 7 143 8 231 1
247 -5 14 -77 127 -161 252 -83 125 -158 242 -165 260 -18 42 -18 115 0 157
17 43 76 93 123 106 21 6 77 11 125 11 78 0 88 2 102 22 9 12 16 42 16 65 l0
43 243 -2 242 -3 3 -50z m409 -2899 c4 -5 2 -11 -5 -13 -22 -8 -42 -34 -42
-55 0 -11 13 -35 29 -54 44 -49 106 -161 130 -231 27 -80 27 -180 1 -264 -19
-60 -28 -79 -73 -142 -23 -32 -12 -56 38 -86 19 -11 35 -25 35 -31 0 -7 -239
-10 -745 -10 -811 0 -784 -2 -710 54 43 33 44 56 4 105 -61 77 -86 231 -55
346 17 64 76 192 115 251 17 25 31 52 31 60 0 24 -19 54 -35 54 -16 0 -20 12
-8 24 10 10 1280 2 1290 -8z"/>
<path d="M2377 2095 c-8 -8 -21 -47 -27 -87 -20 -120 -77 -330 -120 -440 -46
-118 -48 -138 -20 -163 16 -15 26 -17 48 -9 23 8 34 27 69 114 48 121 105 323
128 458 15 85 15 96 0 118 -18 27 -56 32 -78 9z"/>
<path d="M1962 1013 c-17 -7 -57 -87 -77 -157 -25 -85 -23 -211 4 -272 12 -27
27 -52 34 -56 24 -15 57 -8 73 17 15 22 15 28 -1 75 -29 86 -18 195 26 282 40
78 8 138 -59 111z"/>
</g>
</svg>
