<?xml version="1.0" standalone="no"?>
<!DOCTYPE svg PUBLIC "-//W3C//DTD SVG 20010904//EN"
 "http://www.w3.org/TR/2001/REC-SVG-20010904/DTD/svg10.dtd">
<svg version="1.0" xmlns="http://www.w3.org/2000/svg"
 width="512.000000pt" height="512.000000pt" viewBox="0 0 512.000000 512.000000"
 preserveAspectRatio="xMidYMid meet">

<g transform="translate(0.000000,512.000000) scale(0.100000,-0.100000)"
fill="#000000" stroke="none">
<path d="M2453 5102 c-220 -79 -285 -357 -122 -521 58 -57 120 -85 204 -89
246 -13 407 238 295 458 -66 130 -241 201 -377 152z"/>
<path d="M2236 4302 c-89 -48 -156 -50 -237 -8 -69 36 -144 44 -202 22 -81
-31 -147 -128 -147 -214 1 -65 35 -121 136 -220 131 -129 200 -238 263 -417
37 -103 71 -287 71 -380 l0 -64 -52 0 c-67 0 -97 -11 -147 -56 -76 -69 -103
-182 -62 -263 40 -78 90 -102 212 -102 l91 0 -7 -82 c-33 -408 -140 -785 -319
-1123 -59 -112 -66 -122 -112 -145 -26 -14 -59 -40 -71 -59 -27 -40 -31 -106
-8 -138 14 -19 10 -30 -44 -144 -63 -132 -86 -204 -96 -309 -8 -79 14 -196 53
-283 l27 -60 -22 -46 c-13 -26 -26 -75 -29 -112 -11 -109 -113 -99 1028 -99
975 0 988 0 1008 20 34 34 19 172 -24 219 -14 15 -12 25 19 100 44 110 61 228
46 317 -16 91 -45 162 -113 281 -44 76 -58 109 -53 125 13 39 6 98 -15 132
-19 32 -72 66 -102 66 -17 0 -157 275 -216 425 -94 237 -142 456 -187 858 l-6
57 108 0 c103 0 112 2 154 29 84 53 116 143 85 238 -33 98 -114 152 -230 153
l-69 0 6 103 c19 321 116 546 328 760 56 56 108 115 117 132 24 45 21 140 -6
192 -62 118 -195 153 -324 86 -76 -39 -151 -37 -235 5 -34 18 -76 32 -94 32
-17 0 -60 -16 -97 -37 -94 -53 -141 -52 -244 5 -43 23 -85 42 -95 41 -10 0
-49 -17 -87 -37z m-287 -127 c98 -49 225 -49 323 0 l49 25 59 -30 c110 -56
215 -55 325 1 l63 32 34 -21 c19 -12 63 -29 98 -38 80 -20 142 -13 226 27 35
16 76 29 91 29 46 -1 93 -51 93 -100 0 -13 -36 -59 -95 -120 -149 -156 -225
-273 -290 -445 -53 -141 -90 -370 -84 -518 5 -118 9 -121 149 -125 108 -4 111
-5 135 -34 14 -16 25 -40 25 -53 0 -71 -34 -85 -198 -85 -169 0 -168 1 -158
-142 31 -451 125 -816 302 -1170 35 -70 64 -130 64 -133 0 -3 -279 -5 -620 -5
l-620 0 59 117 c177 354 284 765 308 1181 8 152 9 152 -144 152 -144 0 -173
12 -173 70 0 29 7 48 28 72 27 29 35 32 110 37 72 6 85 10 109 34 28 27 28 29
27 155 -2 341 -132 655 -365 884 -89 88 -99 101 -99 133 0 27 8 44 29 66 37
36 75 38 140 4z m1361 -3045 c12 -8 11 -13 -8 -33 -27 -29 -28 -68 -2 -92 28
-25 144 -229 164 -288 26 -76 29 -144 12 -225 -18 -85 -58 -180 -86 -202 -38
-31 -26 -89 23 -111 17 -8 33 -22 35 -31 3 -17 -44 -18 -887 -18 -490 0 -891
3 -891 6 0 14 22 44 32 44 47 0 66 88 24 115 -32 21 -73 115 -88 202 -18 106
4 203 84 366 34 70 70 135 80 144 28 26 23 69 -12 95 -22 16 -27 24 -18 30 18
11 1520 10 1538 -2z"/>
<path d="M2644 2479 c-27 -30 -21 -116 31 -454 54 -349 150 -630 218 -643 34
-7 68 8 78 35 8 21 4 37 -25 92 -76 148 -134 406 -181 810 -8 73 -20 141 -25
151 -19 35 -68 40 -96 9z"/>
<path d="M1870 920 c-33 -35 -76 -147 -92 -240 -14 -79 -1 -198 28 -257 31
-63 88 -76 120 -27 14 20 13 29 -5 89 -34 110 -25 204 33 330 33 72 33 88 0
114 -36 28 -51 26 -84 -9z"/>
</g>
</svg>
