<?xml version="1.0" standalone="no"?>
<!DOCTYPE svg PUBLIC "-//W3C//DTD SVG 20010904//EN"
 "http://www.w3.org/TR/2001/REC-SVG-20010904/DTD/svg10.dtd">
<svg version="1.0" xmlns="http://www.w3.org/2000/svg"
 width="582.000000pt" height="980.000000pt" viewBox="0 0 582.000000 980.000000"
 preserveAspectRatio="xMidYMid meet">

<g transform="translate(0.000000,980.000000) scale(0.100000,-0.100000)"
fill="#000000" stroke="none">
<path d="M398 9780 c-46 -25 -79 -70 -85 -118 -7 -53 22 -278 58 -457 84 -411
229 -784 413 -1065 54 -82 98 -139 214 -280 l23 -28 -33 -44 c-63 -83 -82
-141 -83 -253 0 -97 2 -104 37 -177 58 -117 192 -231 318 -271 14 -4 -3 -204
-137 -1593 -84 -874 -152 -1596 -153 -1605 0 -12 -20 -20 -77 -31 -103 -20
-163 -50 -234 -116 -42 -38 -70 -76 -96 -130 -36 -73 -38 -80 -38 -176 0 -89
4 -108 27 -156 15 -31 43 -74 61 -95 l34 -40 -134 -205 c-175 -269 -328 -517
-375 -610 -48 -95 -93 -234 -114 -353 -12 -70 -15 -129 -11 -247 9 -246 51
-396 230 -825 l54 -131 -29 -34 c-37 -44 -93 -142 -113 -200 -34 -94 -95 -336
-95 -375 0 -59 36 -115 90 -143 l44 -22 2713 0 c2967 0 2752 -5 2806 59 50 59
51 93 13 243 -57 221 -95 317 -164 407 l-41 54 60 118 c83 167 135 303 174
454 45 176 59 307 52 490 -10 249 -60 435 -187 693 -70 143 -122 236 -309 554
l-63 107 33 47 c39 57 69 149 69 214 0 27 -9 76 -19 109 -50 159 -176 271
-341 301 -36 7 -81 15 -100 19 l-35 7 -152 1584 c-84 872 -152 1595 -152 1606
-1 17 11 26 55 43 121 46 248 159 299 267 65 138 33 320 -76 439 l-41 44 64
74 c248 291 434 647 524 1000 14 55 50 235 80 401 48 266 53 306 43 343 -12
45 -58 96 -102 112 -19 7 -239 11 -661 11 l-632 0 -44 -22 c-34 -18 -51 -35
-69 -72 l-25 -49 32 -351 c18 -193 32 -359 32 -368 0 -17 -18 -18 -245 -18
l-246 0 6 48 c14 119 55 611 55 662 0 63 -22 106 -73 144 -28 21 -38 21 -600
24 -384 2 -584 0 -609 -8 -43 -12 -93 -66 -106 -113 -8 -28 22 -430 52 -709
l5 -48 -244 0 -245 0 0 27 c0 15 14 182 31 371 l31 344 -24 46 c-17 32 -36 52
-67 69 l-44 23 -636 0 c-610 -1 -638 -2 -673 -20z m1092 -317 c0 -5 -14 -166
-31 -360 -17 -193 -28 -368 -25 -387 8 -42 54 -99 94 -115 20 -8 163 -11 508
-9 l481 3 35 27 c21 16 43 46 53 70 15 41 14 61 -15 381 -16 186 -30 351 -30
368 l0 29 351 0 351 0 -6 -47 c-20 -159 -57 -628 -54 -678 4 -71 30 -114 82
-139 30 -14 91 -16 506 -16 530 0 519 -1 568 72 20 31 25 51 24 96 0 55 -46
583 -58 670 l-5 42 410 0 c385 0 411 -1 411 -17 0 -34 -62 -358 -86 -451 -91
-348 -288 -689 -570 -982 -124 -129 -144 -160 -144 -220 0 -87 59 -152 150
-166 116 -17 155 -93 83 -162 -51 -47 -90 -62 -168 -62 -36 0 -80 -6 -98 -14
-41 -17 -83 -66 -95 -110 -7 -24 33 -476 149 -1692 87 -912 159 -1665 159
-1671 0 -10 -328 -13 -1605 -13 -1604 0 -1605 0 -1605 20 0 11 70 749 155
1639 85 891 155 1642 155 1669 0 34 -7 59 -22 82 -41 59 -69 73 -165 80 -48 3
-97 11 -109 18 -32 17 -94 90 -94 110 0 41 38 80 100 103 74 27 114 66 129
125 20 78 2 115 -96 208 -280 266 -473 596 -594 1017 -54 189 -106 439 -100
482 1 4 185 7 411 7 226 0 410 -3 410 -7z m3462 -5945 c45 -20 74 -69 58 -98
-6 -11 -31 -30 -56 -41 -62 -30 -87 -69 -92 -144 -3 -51 0 -65 20 -95 53 -78
366 -624 428 -746 122 -241 164 -403 163 -639 0 -182 -18 -290 -78 -466 -42
-121 -154 -354 -219 -454 -39 -58 -46 -77 -46 -118 0 -76 35 -126 113 -162 20
-10 47 -30 58 -46 23 -33 69 -141 69 -164 0 -13 -266 -15 -2466 -15 l-2466 0
6 28 c4 15 23 60 42 101 26 53 45 78 67 90 54 28 104 84 116 128 13 49 7 82
-24 138 -25 43 -165 379 -213 510 -16 44 -43 130 -58 190 -26 98 -29 126 -28
260 2 285 34 355 508 1075 l201 305 0 60 c0 47 -5 67 -23 93 -25 34 -88 72
-120 72 -11 0 -30 8 -42 18 -18 15 -21 24 -16 49 10 46 47 74 108 83 29 4 931
7 2003 6 1799 -1 1953 -2 1987 -18z"/>
<path d="M1784 7041 c-39 -24 -71 -64 -78 -99 -8 -37 -196 -2644 -196 -2716 0
-107 54 -168 155 -174 75 -5 120 21 152 88 20 42 28 144 117 1390 53 740 96
1361 96 1381 0 43 -33 95 -79 126 -43 29 -122 31 -167 4z"/>
<path d="M1033 2779 c-54 -16 -187 -178 -273 -334 -57 -105 -107 -232 -138
-352 -24 -99 -27 -124 -27 -298 0 -173 3 -199 27 -296 47 -187 120 -346 239
-524 87 -130 135 -181 186 -194 105 -28 207 51 207 159 0 51 -1 52 -113 217
-160 233 -231 460 -218 697 11 225 110 458 268 632 79 87 86 168 22 245 -45
53 -106 69 -180 48z"/>
</g>
</svg>
